<?xml version="1.0" encoding="utf-8"?>
<!-- Generator: Adobe Illustrator 16.0.3, SVG Export Plug-In . SVG Version: 6.00 Build 0)  -->
<!DOCTYPE svg PUBLIC "-//W3C//DTD SVG 1.1//EN" "http://www.w3.org/Graphics/SVG/1.1/DTD/svg11.dtd">
<svg version="1.1" id="Layer_1" xmlns="http://www.w3.org/2000/svg" xmlns:xlink="http://www.w3.org/1999/xlink" x="0px" y="0px"
	 width="48px" height="48px" viewBox="0 0 48 48" enable-background="new 0 0 48 48" xml:space="preserve">
<path fill="#1F48B9" d="M47.79,19.777c0,0-2.572-2.286-5.271-4.67c-2.697-2.384-5.473-4.834-5.97-5.25
	c-0.944-0.793-2.024-0.895-2.614-0.895c-0.588,0-1.67,0.104-2.615,0.896c-0.459,0.386-3.227,2.82-5.934,5.214
	c-2.706,2.394-5.302,4.705-5.302,4.705c-0.122,0.107-0.192,0.26-0.193,0.422v16.29c0,0.31,0.25,0.56,0.56,0.56h26.97
	c0.31,0.002,0.562-0.248,0.563-0.557c0-0.001,0-0.002,0-0.003V20.2c0-0.162-0.07-0.316-0.192-0.423H47.79z M21.014,21.9l7.146,5.655
	c-2.971,2.323-6.32,4.938-7.145,5.584L21.014,21.9L21.014,21.9z M39.57,24.132H28.266c-0.312,0-0.563,0.253-0.563,0.563
	c0,0.018,0,0.034,0.002,0.051c0.027,0.311,0.303,0.54,0.613,0.51h2.791c-0.356,0.28-1.326,1.043-2.039,1.598l-3.563-2.81V19.64
	h16.855v4.407L38.8,26.857c-0.71-0.557-1.68-1.32-2.036-1.601h2.791c0.311,0.017,0.575-0.221,0.592-0.53
	c0.017-0.311-0.221-0.575-0.531-0.592c-0.015-0.001-0.029-0.001-0.045-0.001V24.132z M46.857,35.932H21.015v-1.369l11.025-8.621
	c0.726-0.567,1.479-0.687,1.896-0.687s1.172,0.118,1.896,0.687l11.025,8.619V35.932L46.857,35.932z M46.857,33.139
	c-0.823-0.647-4.176-3.26-7.146-5.584l7.146-5.655v11.241V33.139z M46.857,20.479l-3.369,2.667v-4.072
	c0.002-0.31-0.248-0.562-0.557-0.563c-0.002,0-0.004,0-0.007,0h-18.03c-0.018-0.001-0.035-0.001-0.054,0
	c-0.268,0.053-0.458,0.291-0.454,0.563v4.072l-3.37-2.67v-0.033c0.18-0.16,2.52-2.226,5.125-4.53
	c2.707-2.393,5.547-4.902,5.899-5.197c0.66-0.553,1.435-0.632,1.896-0.632c0.463,0,1.236,0.08,1.896,0.632
	c0.402,0.336,3.24,2.848,5.936,5.232c2.598,2.295,4.912,4.333,5.092,4.494v0.034L46.857,20.479z M39.57,21.321H28.16
	c-0.311,0.044-0.525,0.332-0.481,0.642s0.331,0.526,0.642,0.481l0,0h11.234c0.311-0.018,0.548-0.284,0.53-0.594
	C40.068,21.57,39.85,21.345,39.57,21.321z M0,20.306h16.128v-1.66H0V20.306z M0,25.289h16.128v-1.664H0v1.662V25.289z M0,15.321
	h19.864v-1.66H0V15.321z M0,30.686h15.712v-1.662H0V30.686z"/>
</svg>
