<svg xmlns="http://www.w3.org/2000/svg" width="48" height="48" viewBox="0 0 48 48"><path fill-rule="evenodd" clip-rule="evenodd" fill="#BD3B40" d="M47.79 19.777s-2.572-2.286-5.27-4.67-5.473-4.834-5.97-5.25c-.945-.793-2.025-.895-2.614-.895s-1.67.104-2.615.896c-.46.386-3.227 2.82-5.934 5.214-2.706 2.394-5.302 4.705-5.302 4.705a.565.565 0 0 0-.193.422v16.29c0 .31.25.56.56.56h26.97a.56.56 0 0 0 .563-.56V20.2a.567.567 0 0 0-.193-.423zM21.014 21.9l7.146 5.655c-2.97 2.323-6.32 4.938-7.145 5.583V21.9zm18.556 2.232H28.265a.563.563 0 0 0-.56.614c.027.31.303.54.613.51h2.792c-.357.28-1.327 1.043-2.04 1.598l-3.562-2.81V19.64h16.856v4.407l-3.564 2.81c-.71-.556-1.68-1.32-2.037-1.6h2.792a.562.562 0 1 0 .016-1.123zm7.288 11.8H21.015v-1.37l11.025-8.62c.726-.568 1.48-.687 1.896-.687s1.172.118 1.896.686l11.026 8.62v1.37zm0-2.793c-.824-.648-4.176-3.26-7.146-5.585l7.146-5.654v11.24zm0-12.66l-3.37 2.667v-4.072a.56.56 0 0 0-.563-.563h-18.03a.47.47 0 0 0-.054 0 .564.564 0 0 0-.454.563v4.072l-3.37-2.67v-.033c.18-.16 2.52-2.226 5.125-4.53 2.707-2.393 5.548-4.902 5.9-5.197.66-.553 1.435-.632 1.896-.632.463 0 1.236.08 1.896.632.402.336 3.24 2.848 5.936 5.232 2.597 2.295 4.912 4.333 5.092 4.494v.034zm-7.287.842H28.16a.566.566 0 1 0 .16 1.123h11.235a.563.563 0 0 0 .016-1.123zM0 20.306h16.128v-1.66H0v1.66zm0 4.983h16.128v-1.664H0v1.662zm0-9.968h19.864v-1.66H0v1.66zm0 15.365h15.712v-1.662H0v1.662z"/></svg>