<?xml version="1.0" encoding="utf-8"?>
<!-- Generator: Adobe Illustrator 16.0.3, SVG Export Plug-In . SVG Version: 6.00 Build 0)  -->
<!DOCTYPE svg PUBLIC "-//W3C//DTD SVG 1.1//EN" "http://www.w3.org/Graphics/SVG/1.1/DTD/svg11.dtd">
<svg version="1.1" id="Layer_1" xmlns="http://www.w3.org/2000/svg" xmlns:xlink="http://www.w3.org/1999/xlink" x="0px" y="0px"
	 width="140.686px" height="99.908px" viewBox="0 0 140.686 99.908" enable-background="new 0 0 140.686 99.908"
	 xml:space="preserve">
<path fill="#3751A1" stroke="#3751A1" stroke-linecap="round" stroke-miterlimit="10" d="M75.278,51.436
	c-3.857,13.178-11.016,20.677-24.924,23.976c-30.973,7.343-36.389,24.236-36.422,24.395c0,0,1.14-19.698,32.972-28.064
	c12.399-3.258,21.419-12.37,25.932-23.749c3.437-8.669,8.589-12.33,11.075-13.009c-2.168-0.315-5.539-2.597-9.886-2.143
	c-5.942,0.619-10.57,3.291-10.57,3.291s-0.044-1.728,4.416-5.4c3.341-2.753,8.845-2.621,13.204,0.415
	c3.695,2.572,7.418,3.707,7.433,3.709C84.394,36.56,79.299,37.703,75.278,51.436z M42.179,23.538
	c-2.862-3.524-6.147-6.38-14.504-7.621c-7.793-1.158-12.05-4.268-17.372-8.204C7.088,5.334,2.439,0.364,2.439,0.364
	C4.862,2.64,5.322,5.582,8.569,8.992c4.444,4.668,9.548,9.016,18.071,10.825c7.301,1.551,11.609,4.035,14.163,6.74
	c7.114,7.53,14.279,8.768,15.566,9.54C49.923,30.908,47.413,29.987,42.179,23.538z M18.471,38.418
	C18.484,50.66,30.98,60.304,50.986,53.622c0.061-0.074,0,0,0.054-0.072C42.129,54.295,26.022,51.342,18.471,38.418
	C18.2,38.292,18.471,38.418,18.471,38.418z M8.111,21.865C7.217,34.073,18.967,44.616,39.413,39.433c0.064-0.072,0,0,0.059-0.069
	C30.529,39.448,14.685,35.309,8.111,21.865C7.85,21.717,8.111,21.865,8.111,21.865z M1.309,8.495
	c-3.476,8.263,4.478,17.792,19.559,18.955c0.061-0.035-0.003-0.157,0.053-0.191C14.806,25.261,2.699,19.286,1.312,8.652
	C1.169,8.49,1.309,8.495,1.309,8.495z"/>
<g>
	<path fill="#030303" d="M134.888,48.276l-12.806,12.806c-0.709,0.709-1.569,1.063-2.58,1.063s-1.871-0.354-2.58-1.064
		l-23.74-23.739c-0.709-0.71-1.064-1.569-1.064-2.58c0.001-1.011,0.355-1.871,1.064-2.58l12.806-12.806
		c-0.054,1,0.021,2.011,0.226,3.032c1.247,6.537,2.064,11.063,2.451,13.579c0.162,1.064,0.307,1.914,0.436,2.549
		c0.129,0.634,0.379,1.399,0.75,2.298c0.37,0.897,0.83,1.62,1.379,2.169l0.016,0.016l0.016,0.016
		c0.549,0.549,1.272,1.009,2.17,1.379c0.898,0.372,1.664,0.622,2.299,0.751c0.634,0.129,1.482,0.273,2.548,0.436
		c3.149,0.505,7.682,1.327,13.595,2.467C132.905,48.261,133.909,48.33,134.888,48.276z M139.629,43.535
		c-0.85,0.85-1.926,1.396-3.225,1.646c-1.302,0.247-2.619,0.252-3.953,0.015c-6.848-1.236-11.111-2.005-12.788-2.306
		c-0.184-0.032-0.576-0.097-1.177-0.193c-0.604-0.097-1.098-0.183-1.484-0.259c-0.388-0.075-0.842-0.18-1.363-0.313
		c-0.521-0.135-0.976-0.299-1.362-0.492s-0.704-0.414-0.952-0.661l-0.016-0.016l-0.016-0.017c-0.248-0.247-0.469-0.564-0.662-0.952
		c-0.193-0.387-0.357-0.841-0.491-1.362c-0.135-0.521-0.239-0.976-0.314-1.362s-0.161-0.882-0.259-1.484
		c-0.097-0.602-0.161-0.994-0.192-1.177c-0.29-1.666-0.718-4.057-1.282-7.169s-0.9-4.98-1.008-5.604
		c-0.216-1.118-0.224-2.367-0.024-3.749c0.198-1.382,0.637-2.411,1.313-3.089c0.84-0.838,1.762-1.313,2.766-1.428
		c1.006-0.112,1.923,0.245,2.751,1.073l23.739,23.739c0.699,0.699,1.051,1.557,1.057,2.572
		C140.69,41.963,140.338,42.825,139.629,43.535z"/>
</g>
</svg>
