<?xml version="1.0" encoding="utf-8"?>
<!-- Generator: Adobe Illustrator 16.0.3, SVG Export Plug-In . SVG Version: 6.00 Build 0)  -->
<!DOCTYPE svg PUBLIC "-//W3C//DTD SVG 1.1//EN" "http://www.w3.org/Graphics/SVG/1.1/DTD/svg11.dtd">
<svg version="1.1" id="Layer_1" xmlns="http://www.w3.org/2000/svg" xmlns:xlink="http://www.w3.org/1999/xlink" x="0px" y="0px"
	 width="48px" height="48px" viewBox="0 0 48 48" enable-background="new 0 0 48 48" xml:space="preserve">
<path fill="#1F48B9" d="M25.982,37.998h5.404v-1.2h-5.404V38V37.998z M34.414,35.018h1.199V31.13h-1.199V35.018L34.414,35.018z
	 M29.559,22.968c-0.055-0.098-0.137-0.179-0.235-0.233l-7.188-4.137c-0.107-0.062-0.232-0.088-0.356-0.076h-0.058
	c-0.287,0.055-0.492,0.308-0.487,0.6v8.274c-0.003,0.331,0.263,0.602,0.595,0.605c0.107,0,0.212-0.027,0.305-0.081l7.187-4.136
	c0.29-0.16,0.395-0.524,0.236-0.814L29.559,22.968z M22.434,26.348V20.17l5.373,3.09L22.434,26.348z M35.443,16.601l-8.387-8.385
	L26.87,8.048H12.85V38h11.425v-1.2H14.047V9.244h11.98v8.387h8.387v5.87h1.199v-6.71L35.443,16.601z M27.227,16.434v-6.327
	l6.328,6.327H27.227z"/>
<path fill="#1F48B9" d="M34.657,34.48c-0.9,0-1.748,0.369-2.454,1.076l-5.864,5.865c-0.452,0.45-0.964,0.688-1.483,0.688
	c-0.483,0-0.961-0.205-1.348-0.57c-0.36-0.346-0.575-0.8-0.59-1.257c-0.016-0.54,0.224-1.063,0.68-1.525l0.607-0.587l0.166,0.16
	c0.294,0.294,0.734,0.432,1.064,0.337c0.098-0.028,0.189-0.076,0.269-0.14l0.021,0.02l0.149-0.15
	c2.385-2.386,7.308-5.588,8.08-6.084c2.644-0.086,4.782-2.289,4.782-4.939c-0.002-2.729-2.214-4.942-4.943-4.945
	c-2.65,0-4.855,2.141-4.939,4.785c-0.484,0.76-3.59,5.596-6.045,8.051l-0.053,0.064c-0.098,0.091-0.173,0.203-0.22,0.328
	c-0.133,0.343-0.01,0.826,0.288,1.123l0.45,0.449l-0.57,0.57c-0.74,0.74-1.132,1.637-1.105,2.524
	c0.034,0.827,0.389,1.608,0.99,2.178c0.613,0.579,1.424,0.903,2.268,0.907c0.896,0,1.73-0.36,2.412-1.045l5.867-5.865
	c0.473-0.473,1-0.725,1.53-0.725c0.478,0,0.944,0.201,1.319,0.566c0.357,0.348,0.566,0.809,0.578,1.268
	c0.013,0.545-0.23,1.072-0.727,1.564l-2.71,2.713c-0.261,0.261-0.261,0.683,0,0.943c0.263,0.254,0.68,0.254,0.942,0l2.701-2.713
	c0.739-0.74,1.137-1.641,1.117-2.533c-0.027-0.83-0.377-1.616-0.976-2.191c-0.606-0.584-1.413-0.912-2.253-0.916L34.657,34.48z
	 M23.877,36.016c1.977-2.031,4.21-5.269,5.297-6.914c0.507,1.346,1.57,2.406,2.917,2.908c-1.93,1.285-5.04,3.455-6.937,5.295
	l-1.275-1.291L23.877,36.016z M35.961,30.268c-1.601,1.19-3.864,0.859-5.055-0.742c-0.464-0.622-0.715-1.377-0.715-2.152
	s0.254-1.53,0.713-2.15l5.059,5.045H35.961z M33.798,23.765c1.994,0.001,3.609,1.618,3.608,3.612c0,0.679-0.192,1.344-0.553,1.918
	l-4.979-4.978C32.451,23.954,33.118,23.763,33.798,23.765L33.798,23.765z"/>
</svg>
