<?xml version="1.0" encoding="utf-8"?>
<!-- Generator: Adobe Illustrator 16.0.3, SVG Export Plug-In . SVG Version: 6.00 Build 0)  -->
<!DOCTYPE svg PUBLIC "-//W3C//DTD SVG 1.1//EN" "http://www.w3.org/Graphics/SVG/1.1/DTD/svg11.dtd">
<svg version="1.1" id="Layer_1" xmlns="http://www.w3.org/2000/svg" xmlns:xlink="http://www.w3.org/1999/xlink" x="0px" y="0px"
	 width="48px" height="48px" viewBox="0 0 48 48" enable-background="new 0 0 48 48" xml:space="preserve">
<path fill="#1F48B9" d="M11.778,10.322c-1.286,0-2.328,1.042-2.328,2.328l0,0v20.956c0,1.285,1.042,2.326,2.328,2.326h0.583v1.163
	c0,0.322,0.26,0.585,0.584,0.585h2.91c0.32,0,0.583-0.265,0.583-0.587V35.93H32.15v1.164c0,0.322,0.26,0.584,0.58,0.584h2.912
	c0.319,0,0.582-0.263,0.582-0.585V35.93c1.284,0,2.325-1.041,2.325-2.326l0,0V12.65c0.001-1.285-1.039-2.327-2.323-2.328
	c-0.002,0-0.002,0-0.002,0H11.778z M11.778,11.486h24.447c0.689,0,1.162,0.472,1.162,1.164v20.956c0,0.691-0.472,1.162-1.162,1.162
	h-3.367c-0.059-0.016-0.121-0.022-0.183-0.02c-0.018,0.008-0.036,0.013-0.055,0.02H13.07c-0.059-0.016-0.121-0.022-0.182-0.02
	l-0.054,0.02h-1.056c-0.692,0-1.164-0.47-1.164-1.162V12.65C10.614,11.958,11.084,11.486,11.778,11.486z M12.833,13.233
	c-0.279,0.052-0.479,0.298-0.473,0.582v7.966c-0.035,0.113-0.035,0.234,0,0.348v2.11c-0.005,0.042-0.005,0.085,0,0.128v8.074
	c0,0.322,0.26,0.582,0.582,0.582h22.119c0.32,0,0.58-0.258,0.582-0.578c0-0.001,0-0.002,0-0.002V13.814
	c0-0.321-0.262-0.582-0.582-0.582l0,0H12.942c-0.018-0.002-0.037-0.002-0.055,0C12.869,13.23,12.851,13.23,12.833,13.233
	L12.833,13.233z M13.525,14.396h20.952v17.459H13.525v-7.31l1-1c0.231-0.224,0.237-0.593,0.013-0.824
	c-0.004-0.004-0.008-0.009-0.013-0.013l-1-1v-7.315V14.396z M23.945,16.126c-0.023,0.004-0.047,0.01-0.07,0.017
	c-0.02,0.006-0.037,0.01-0.056,0.018c-1.707,0.041-3.339,0.708-4.585,1.876c-0.164,0.063-0.291,0.197-0.345,0.364
	c-1.127,1.211-1.785,2.785-1.854,4.437c-0.104,0.18-0.104,0.402,0,0.582c0.068,1.635,0.712,3.193,1.818,4.4
	c0.048,0.229,0.227,0.406,0.455,0.455c1.247,1.146,2.87,1.799,4.564,1.836h0.254c0.017-0.006,0.035-0.01,0.053-0.021
	c1.679-0.038,3.289-0.683,4.53-1.815c0.228-0.056,0.399-0.243,0.436-0.475c1.104-1.215,1.811-2.802,1.838-4.563
	c0.004-0.036,0.004-0.073,0-0.11v-0.073c-0.004-0.037-0.01-0.073-0.019-0.108c-0.04-1.706-0.706-3.338-1.873-4.583
	c-0.063-0.155-0.189-0.275-0.347-0.33c-1.221-1.136-2.834-1.858-4.62-1.89C24.065,16.129,24.004,16.123,23.945,16.126L23.945,16.126
	z M23.4,17.343h0.018v1.128c-0.005,0.321,0.251,0.586,0.573,0.591c0.321,0.005,0.586-0.251,0.591-0.573l0,0v-1.146
	c1.14,0.108,2.222,0.551,3.109,1.273l-0.782,0.783c-0.245,0.207-0.274,0.573-0.067,0.817c0.207,0.245,0.572,0.275,0.816,0.068
	c0.025-0.021,0.047-0.043,0.068-0.067l0.781-0.782c0.722,0.889,1.164,1.972,1.271,3.112h-1.235c-0.32,0.027-0.558,0.309-0.53,0.629
	c0,0.002,0,0.004,0,0.006c0.031,0.322,0.318,0.559,0.641,0.53h1.127c-0.108,1.14-0.551,2.222-1.273,3.11l-0.781-0.78
	c-0.122-0.13-0.297-0.198-0.475-0.185H27.2c-0.316,0.059-0.526,0.361-0.47,0.678c0.022,0.124,0.085,0.237,0.178,0.322l0.781,0.783
	c-0.887,0.723-1.97,1.165-3.109,1.271v-1.13c0.011-0.322-0.242-0.592-0.563-0.603c-0.024,0-0.048,0-0.073,0.002
	c-0.024,0.006-0.048,0.012-0.072,0.021c-0.271,0.06-0.461,0.303-0.455,0.58v1.127c-1.14-0.106-2.222-0.55-3.11-1.273l0.783-0.782
	c0.233-0.219,0.244-0.586,0.024-0.819c0-0.001-0.001-0.001-0.002-0.002c-0.128-0.135-0.312-0.2-0.496-0.179
	c-0.133,0.02-0.255,0.085-0.346,0.184l-0.78,0.779c-0.723-0.887-1.167-1.97-1.275-3.109h1.127c0.321,0,0.581-0.26,0.581-0.581
	s-0.26-0.581-0.581-0.581h-1.128c0.108-1.14,0.551-2.223,1.274-3.112l0.78,0.783c0.203,0.249,0.57,0.286,0.819,0.083
	s0.286-0.57,0.083-0.819c-0.024-0.03-0.052-0.058-0.082-0.082l-0.783-0.783c0.885-0.719,1.96-1.162,3.095-1.275V17.343z M24,19.635
	c-1.926,0.006-3.486,1.566-3.49,3.492c0,1.92,1.57,3.493,3.49,3.493c1.927-0.006,3.486-1.566,3.492-3.493
	c-0.004-1.926-1.564-3.486-3.49-3.492H24z M24,20.799c1.294,0,2.33,1.033,2.33,2.326s-1.036,2.328-2.33,2.328
	s-2.328-1.036-2.328-2.328s1.036-2.328,2.33-2.328L24,20.799z M13.526,35.93h1.745v0.58h-1.744L13.526,35.93L13.526,35.93z
	 M33.314,35.93h1.746v0.58h-1.748v-0.58H33.314z"/>
</svg>
