<svg xmlns="http://www.w3.org/2000/svg" width="48" height="48" viewBox="0 0 48 48"><path fill-rule="evenodd" clip-rule="evenodd" fill="#FFF" d="M40 14.08a13.106 13.106 0 0 1-3.77 1.032 6.587 6.587 0 0 0 2.886-3.63c-1.27.752-2.674 1.298-4.17 1.592a6.557 6.557 0 0 0-4.792-2.072 6.563 6.563 0 0 0-6.564 6.563c0 .515.058 1.016.17 1.496a18.645 18.645 0 0 1-13.532-6.856 6.535 6.535 0 0 0-.89 3.3 6.56 6.56 0 0 0 2.922 5.462 6.547 6.547 0 0 1-2.974-.82v.082a6.57 6.57 0 0 0 5.266 6.436 6.617 6.617 0 0 1-2.964.112 6.573 6.573 0 0 0 6.133 4.558 13.177 13.177 0 0 1-8.152 2.81c-.53 0-1.053-.032-1.566-.093A18.586 18.586 0 0 0 18.065 37c12.076 0 18.68-10 18.68-18.673 0-.284-.007-.567-.02-.85A13.364 13.364 0 0 0 40 14.08z"/></svg>