<svg xmlns="http://www.w3.org/2000/svg" width="48" height="48" viewBox="0 0 48 48"><path fill-rule="evenodd" clip-rule="evenodd" fill="#FFF" d="M24.787 7.002c-9.168 0-13.792 6.654-13.792 12.202 0 3.36 1.257 6.35 3.952 7.463.442.183.84.006.966-.49.09-.342.3-1.207.396-1.566.127-.49.077-.66-.28-1.088-.775-.928-1.272-2.13-1.272-3.83 0-4.938 3.648-9.355 9.5-9.355 5.183 0 8.03 3.205 8.03 7.485 0 5.632-2.463 10.386-6.118 10.386-2.02 0-3.53-1.69-3.046-3.763.58-2.476 1.704-5.146 1.704-6.932 0-1.6-.85-2.933-2.603-2.933-2.064 0-3.722 2.16-3.722 5.056 0 1.844.615 3.092.615 3.092l-2.48 10.644c-.74 3.16-.112 7.032-.06 7.423.03.23.325.287.46.112.19-.252 2.646-3.323 3.482-6.393.237-.87 1.357-5.37 1.357-5.37.67 1.295 2.63 2.436 4.714 2.436 6.205 0 10.413-5.725 10.413-13.387 0-5.796-4.847-11.19-12.216-11.19z"/></svg>