<svg xmlns="http://www.w3.org/2000/svg" width="48" height="48" viewBox="0 0 48 48"><path fill-rule="evenodd" clip-rule="evenodd" fill="#FFF" d="M36.723 17.01v-5.28h-1.76v5.28h-5.277v.19h-.084v1.364h.084v.205h5.277v5.277h1.76V18.77H42v-1.76h-5.277zm-9.5-5.274h-8.516c-3.818 0-7.412 2.867-7.412 6.188 0 3.394 2.603 6.133 6.487 6.133.27 0 .533-.005.79-.024-.252.48-.433 1.017-.433 1.577 0 .942.51 1.708 1.16 2.332-.49 0-.962.015-1.478.015-4.73 0-8.368 2.984-8.368 6.08 0 3.05 3.99 4.957 8.72 4.957 5.39 0 8.368-3.032 8.368-6.082 0-2.444-.73-3.908-2.978-5.485-.77-.54-2.24-1.854-2.24-2.626 0-.904.26-1.35 1.634-2.414 1.408-1.09 2.405-2.625 2.405-4.41 0-2.123-.954-4.192-2.745-4.874h2.7l1.906-1.366zm-2.974 20.65c.066.283.103.574.103.87 0 2.465-1.6 4.39-6.197 4.39-3.27 0-5.63-2.05-5.63-4.514 0-2.415 2.93-4.425 6.198-4.39.762.008 1.473.13 2.118.337 1.775 1.222 3.048 1.912 3.407 3.307zm-5.235-9.19c-2.194-.064-4.28-2.432-4.658-5.288-.378-2.856 1.092-5.042 3.286-4.977 2.193.066 4.28 2.358 4.658 5.214.38 2.856-1.092 5.118-3.285 5.053z"/></svg>