<svg xmlns="http://www.w3.org/2000/svg" width="164.407" height="99.025" viewBox="0 0 164.407 99.025"><g fill="#C33A32"><path d="M86.85 34.348c-.015-.002-3.722-1.132-7.402-3.695-4.34-3.022-9.822-3.153-13.15-.413-4.44 3.658-4.396 5.38-4.396 5.38s4.61-2.66 10.526-3.28c4.328-.45 7.685 1.82 9.845 2.136-2.476.675-7.606 4.32-11.03 12.952C66.75 58.76 57.768 67.833 45.42 71.078c-31.7 8.333-32.835 27.947-32.835 27.947.034-.156 5.427-16.98 36.27-24.292 13.85-3.284 20.98-10.753 24.82-23.874 4.005-13.677 9.078-14.816 13.175-16.512zM54.844 35.583c-1.28-.77-8.417-2-15.5-9.5-2.543-2.692-6.833-5.167-14.104-6.71-8.488-1.804-13.57-6.133-17.996-10.78C3.134 4.275 1.178.035 1.14 0c0 0 4.63 4.948 7.832 7.318 5.3 3.92 9.54 7.016 17.3 8.17 8.32 1.236 11.593 4.08 14.442 7.59 5.213 6.422 7.713 7.34 14.13 12.505z"/><path d="M15.26 36c-.255 12.188 11.975 22.064 32.04 15.85.06-.073 0 0 .055-.07-8.89.546-24.86-2.75-32.094-15.78-.266-.134 0 0 0 0z"/><path d="M5.31 19.31C4.152 31.445 15.618 42.2 36.087 37.488c.067-.07 0 0 .06-.068-8.903-.11-24.587-4.58-30.837-18.11-.256-.153 0 0 0 0z"/><path d="M1.07 5.237C-2.51 13.25 2.84 23.224 17.888 24.72c.062-.033 0 0 .057-.033-6.05-2.125-15.72-8.782-16.873-19.45-.14-.164 0 0 0 0z"/></g><path d="M164.407 49.4L119.957 4.95l-29.4 29.4L135.008 78.8l29.397-29.4zm-3.18-.833l-35.6-4.837-4.837-35.6 40.436 40.437zm-68.322-14.22L119.14 8.112l3.38 25.408-31.965.827 32.313.82 1.297 10.024 10.023 1.297.82 32.313.826-31.966 25.408 3.38-26.234 26.236-42.103-42.103z"/></svg>