<?xml version="1.0" encoding="utf-8"?>
<!-- Generator: Adobe Illustrator 16.0.3, SVG Export Plug-In . SVG Version: 6.00 Build 0)  -->
<!DOCTYPE svg PUBLIC "-//W3C//DTD SVG 1.1//EN" "http://www.w3.org/Graphics/SVG/1.1/DTD/svg11.dtd">
<svg version="1.1" id="Layer_1" xmlns="http://www.w3.org/2000/svg" xmlns:xlink="http://www.w3.org/1999/xlink" x="0px" y="0px"
	 width="200px" height="200px" viewBox="0 0 200 200" enable-background="new 0 0 200 200" xml:space="preserve">
<path fill="none" stroke="#3751A1" stroke-width="2" stroke-miterlimit="10" d="M101.779,106.527
	c-3.857,13.178-11.016,20.677-24.924,23.976c-30.973,7.343-36.389,24.235-36.422,24.396c0,0,1.14-19.698,32.972-28.064
	c12.399-3.258,21.419-12.37,25.932-23.749c3.437-8.669,8.589-12.33,11.075-13.009c-2.168-0.315-5.539-2.597-9.887-2.143
	c-5.941,0.619-10.569,3.291-10.569,3.291s-0.044-1.728,4.416-5.4c3.341-2.753,8.845-2.621,13.204,0.415
	c3.695,2.572,7.418,3.707,7.433,3.709C110.895,91.651,105.8,92.795,101.779,106.527z M68.679,78.63
	c-2.862-3.524-6.147-6.38-14.504-7.621c-7.793-1.158-12.05-4.268-17.372-8.204c-3.215-2.379-7.864-7.349-7.864-7.349
	c2.422,2.275,2.883,5.218,6.129,8.628c4.444,4.668,9.548,9.016,18.071,10.825c7.301,1.551,11.609,4.035,14.163,6.74
	c7.114,7.53,14.279,8.768,15.566,9.54C76.424,86,73.914,85.079,68.679,78.63z M44.971,93.51
	c0.013,12.242,12.509,21.886,32.516,15.204c0.061-0.073,0,0,0.054-0.071C68.629,109.387,52.522,106.434,44.971,93.51
	C44.701,93.384,44.971,93.51,44.971,93.51z M34.611,76.957c-0.894,12.208,10.856,22.751,31.302,17.567c0.064-0.072,0,0,0.059-0.069
	C57.03,94.54,41.186,90.4,34.611,76.957C34.351,76.809,34.611,76.957,34.611,76.957z M27.809,63.587
	c-3.476,8.263,4.478,17.792,19.559,18.955c0.061-0.035-0.003-0.157,0.053-0.191c-6.114-1.998-18.222-7.973-19.608-18.606
	C27.669,63.582,27.809,63.587,27.809,63.587z"/>
<g enable-background="new    ">
	<path fill="none" stroke="#000000" stroke-width="2" stroke-miterlimit="10" d="M161.389,103.369l-12.805,12.805
		c-0.709,0.709-1.57,1.064-2.58,1.064c-1.011,0-1.871-0.355-2.58-1.064l-23.74-23.74c-0.709-0.709-1.063-1.569-1.064-2.58
		c0-1.011,0.355-1.871,1.064-2.58l12.805-12.805c-0.053,1,0.021,2.01,0.227,3.032c1.247,6.536,2.064,11.063,2.451,13.578
		c0.161,1.064,0.307,1.914,0.436,2.549c0.129,0.634,0.378,1.4,0.75,2.298c0.37,0.898,0.83,1.621,1.379,2.169l0.016,0.017
		l0.017,0.016c0.548,0.549,1.271,1.009,2.169,1.379c0.896,0.371,1.663,0.621,2.298,0.75s1.483,0.273,2.548,0.435
		c3.15,0.506,7.682,1.328,13.596,2.469C159.404,103.354,160.41,103.422,161.389,103.369z M166.13,98.628
		c-0.849,0.849-1.925,1.396-3.226,1.644c-1.301,0.248-2.617,0.253-3.951,0.017c-6.848-1.235-11.111-2.005-12.789-2.306
		c-0.182-0.033-0.575-0.097-1.177-0.194c-0.602-0.097-1.097-0.183-1.483-0.257c-0.388-0.076-0.842-0.181-1.363-0.314
		c-0.521-0.135-0.975-0.299-1.363-0.492c-0.387-0.193-0.703-0.414-0.951-0.662l-0.016-0.016l-0.016-0.016
		c-0.248-0.248-0.469-0.564-0.662-0.951c-0.193-0.389-0.357-0.843-0.492-1.363c-0.134-0.521-0.238-0.977-0.314-1.363
		c-0.074-0.387-0.16-0.883-0.257-1.483c-0.099-0.603-0.162-0.995-0.194-1.177c-0.29-1.667-0.718-4.057-1.281-7.169
		c-0.564-3.112-0.901-4.981-1.009-5.604c-0.215-1.118-0.224-2.367-0.024-3.75c0.199-1.381,0.638-2.411,1.314-3.088
		c0.839-0.839,1.761-1.314,2.766-1.428c1.006-0.113,1.922,0.245,2.75,1.073l23.739,23.739c0.698,0.699,1.052,1.557,1.058,2.572
		C167.191,97.055,166.84,97.918,166.13,98.628z"/>
</g>
</svg>
