<?xml version="1.0" encoding="utf-8"?>
<!-- Generator: Adobe Illustrator 16.0.3, SVG Export Plug-In . SVG Version: 6.00 Build 0)  -->
<!DOCTYPE svg PUBLIC "-//W3C//DTD SVG 1.1//EN" "http://www.w3.org/Graphics/SVG/1.1/DTD/svg11.dtd">
<svg version="1.1" id="Layer_1" xmlns="http://www.w3.org/2000/svg" xmlns:xlink="http://www.w3.org/1999/xlink" x="0px" y="0px"
	 width="200px" height="200px" viewBox="0 0 200 200" enable-background="new 0 0 200 200" xml:space="preserve">
<path fill="#3751A1" stroke="#3751A1" stroke-linecap="round" stroke-miterlimit="10" d="M101.779,106.527
	c-3.857,13.178-11.016,20.677-24.924,23.976c-30.973,7.343-36.389,24.236-36.422,24.395c0,0,1.14-19.698,32.972-28.064
	c12.399-3.258,21.419-12.37,25.932-23.749c3.437-8.669,8.589-12.33,11.075-13.009c-2.168-0.315-5.539-2.597-9.886-2.143
	c-5.942,0.619-10.57,3.291-10.57,3.291s-0.044-1.728,4.416-5.4c3.341-2.753,8.845-2.621,13.204,0.415
	c3.695,2.572,7.418,3.707,7.433,3.709C110.895,91.651,105.8,92.795,101.779,106.527z M68.679,78.63
	c-2.862-3.524-6.147-6.38-14.504-7.621c-7.793-1.158-12.05-4.268-17.372-8.204c-3.215-2.379-7.864-7.349-7.864-7.349
	c2.422,2.275,2.883,5.218,6.129,8.628c4.444,4.668,9.548,9.016,18.071,10.825c7.301,1.551,11.609,4.035,14.163,6.74
	c7.114,7.53,14.279,8.768,15.566,9.54C76.424,86,73.914,85.079,68.679,78.63z M44.971,93.51
	c0.013,12.242,12.509,21.886,32.516,15.204c0.061-0.074,0,0,0.054-0.072C68.629,109.387,52.522,106.434,44.971,93.51
	C44.701,93.384,44.971,93.51,44.971,93.51z M34.611,76.957c-0.894,12.208,10.856,22.751,31.302,17.567c0.064-0.072,0,0,0.059-0.069
	C57.03,94.54,41.186,90.4,34.611,76.957C34.351,76.809,34.611,76.957,34.611,76.957z M27.809,63.587
	c-3.476,8.263,4.478,17.792,19.559,18.955c0.061-0.035-0.003-0.157,0.053-0.191c-6.114-1.998-18.222-7.973-19.608-18.606
	C27.669,63.582,27.809,63.587,27.809,63.587z"/>
<text transform="matrix(0.7071 0.7071 -0.7071 0.7071 119.167 87.7891)" fill="#030303" font-family="'FontAwesome'" font-size="40.871"></text>
</svg>
