<svg xmlns="http://www.w3.org/2000/svg" width="48" height="48" viewBox="0 0 48 48"><path fill="#BD3B40" d="M25.982 37.998h5.404v-1.2h-5.404V38zm8.432-2.98h1.2V31.13h-1.2v3.887zm-4.856-12.05a.594.594 0 0 0-.235-.233l-7.188-4.137a.596.596 0 0 0-.356-.076h-.058a.6.6 0 0 0-.487.6v8.274a.6.6 0 0 0 .9.525l7.187-4.136a.6.6 0 0 0 .235-.814zm-7.124 3.38V20.17l5.373 3.09-5.373 3.088zm13.01-9.747l-8.387-8.385-.187-.168H12.85V38h11.425v-1.2H14.047V9.244h11.98v8.387h8.387v5.87h1.2v-6.71l-.17-.19zm-8.217-.167v-6.327l6.327 6.327h-6.327z"/><path fill="#BD3B40" d="M34.657 34.48c-.9 0-1.748.37-2.454 1.077l-5.864 5.865c-.453.45-.964.687-1.483.687-.484 0-.962-.205-1.348-.57-.36-.346-.575-.8-.59-1.257-.016-.54.224-1.063.68-1.525l.607-.587.166.16c.294.294.734.432 1.065.337a.786.786 0 0 0 .268-.14l.02.02.15-.15c2.385-2.386 7.307-5.588 8.08-6.084 2.643-.086 4.783-2.29 4.783-4.94a4.95 4.95 0 0 0-4.944-4.945c-2.65 0-4.855 2.14-4.94 4.785-.484.76-3.59 5.596-6.045 8.05l-.053.065a.86.86 0 0 0-.22.328c-.133.343-.01.826.288 1.123l.45.45-.57.57c-.74.74-1.132 1.636-1.105 2.524a3.18 3.18 0 0 0 .99 2.178 3.32 3.32 0 0 0 2.268.907c.896 0 1.73-.36 2.412-1.045l5.867-5.865c.473-.473 1-.724 1.53-.724.478 0 .945.2 1.32.566.357.347.566.808.577 1.267.013.545-.23 1.072-.726 1.565l-2.71 2.713a.667.667 0 0 0 0 .943.68.68 0 0 0 .943 0l2.7-2.713c.74-.74 1.137-1.64 1.117-2.533a3.185 3.185 0 0 0-.975-2.192 3.278 3.278 0 0 0-2.253-.916zm-10.78 1.535c1.977-2.03 4.21-5.268 5.297-6.913a4.978 4.978 0 0 0 2.917 2.908c-1.93 1.285-5.04 3.455-6.936 5.294l-1.276-1.29zm12.084-5.748a3.613 3.613 0 0 1-5.77-2.894c0-.776.254-1.53.714-2.15l5.058 5.045zm-2.163-6.502a3.61 3.61 0 0 1 3.055 5.53l-4.978-4.978a3.585 3.585 0 0 1 1.924-.552z"/></svg>