<svg xmlns="http://www.w3.org/2000/svg" width="48" height="48" viewBox="0 0 48 48"><path fill="#BD3B40" d="M11.778 10.322A2.328 2.328 0 0 0 9.45 12.65v20.955a2.328 2.328 0 0 0 2.328 2.327h.583v1.163c0 .322.26.584.584.584h2.91c.32 0 .583-.264.583-.586V35.93H32.15v1.164c0 .322.26.584.58.584h2.912c.32 0 .582-.263.582-.585V35.93a2.326 2.326 0 0 0 2.326-2.327V12.65a2.326 2.326 0 0 0-2.326-2.328H11.778zm0 1.164h24.446c.69 0 1.163.472 1.163 1.164v20.955c0 .692-.472 1.163-1.163 1.163h-3.366a.594.594 0 0 0-.183-.02c-.018.008-.036.013-.055.02H13.07a.59.59 0 0 0-.182-.02l-.054.02h-1.056c-.692 0-1.164-.47-1.164-1.163V12.65c0-.692.47-1.164 1.164-1.164zm1.055 1.747a.58.58 0 0 0-.473.582v7.966a.583.583 0 0 0 0 .348v2.11a.548.548 0 0 0 0 .128v8.074c0 .323.26.582.582.582H35.06a.58.58 0 0 0 .582-.58V13.814a.582.582 0 0 0-.582-.582H12.942a.253.253 0 0 0-.055 0 .244.244 0 0 0-.054 0zm.692 1.163h20.952v17.46H13.525v-7.31l1-1a.583.583 0 0 0 0-.837l-1-1v-7.315zm10.42 1.73a.474.474 0 0 0-.07.017c-.02.006-.037.01-.056.018a6.948 6.948 0 0 0-4.585 1.876.585.585 0 0 0-.345.364 6.942 6.942 0 0 0-1.854 4.437.582.582 0 0 0 0 .582 6.946 6.946 0 0 0 1.818 4.4.59.59 0 0 0 .455.455 6.962 6.962 0 0 0 4.564 1.836h.254c.017-.005.035-.01.053-.02a6.957 6.957 0 0 0 4.53-1.815.584.584 0 0 0 .436-.475c1.104-1.215 1.81-2.802 1.837-4.563a.405.405 0 0 0 0-.11v-.073a.64.64 0 0 0-.018-.108 6.94 6.94 0 0 0-1.873-4.583.584.584 0 0 0-.347-.33c-1.22-1.136-2.834-1.858-4.62-1.89a.59.59 0 0 0-.18-.018zm-.545 1.217h.018v1.128a.58.58 0 0 0 1.164.018v-1.146a5.798 5.798 0 0 1 3.11 1.273l-.783.783a.58.58 0 1 0 .817.818l.782-.782a5.805 5.805 0 0 1 1.272 3.112h-1.236a.582.582 0 0 0-.53.635.59.59 0 0 0 .64.53h1.127a5.798 5.798 0 0 1-1.273 3.11l-.782-.78a.584.584 0 0 0-.474-.184H27.2a.585.585 0 0 0-.47.677.586.586 0 0 0 .178.323l.782.782a5.777 5.777 0 0 1-3.11 1.272v-1.13a.583.583 0 0 0-.636-.6.484.484 0 0 0-.072.02.58.58 0 0 0-.455.58v1.127a5.777 5.777 0 0 1-3.11-1.273l.783-.782a.58.58 0 0 0 .022-.822.587.587 0 0 0-.496-.178.588.588 0 0 0-.346.183l-.78.78a5.792 5.792 0 0 1-1.275-3.11h1.127a.58.58 0 1 0 0-1.162h-1.128a5.798 5.798 0 0 1 1.274-3.112l.78.783a.582.582 0 1 0 .82-.818l-.783-.783A5.826 5.826 0 0 1 23.4 17.34zm.6 2.292a3.5 3.5 0 0 0-3.49 3.492c0 1.92 1.57 3.493 3.49 3.493a3.502 3.502 0 0 0 3.492-3.493 3.5 3.5 0 0 0-3.49-3.492zm0 1.164c1.294 0 2.33 1.033 2.33 2.326s-1.036 2.328-2.33 2.328-2.328-1.036-2.328-2.328 1.036-2.328 2.33-2.328zM13.526 35.93h1.745v.58h-1.744v-.58zm19.788 0h1.746v.58h-1.747v-.58z"/></svg>